<svg width="2942" height="1000" viewBox="0 0 2942 1000" fill="none" xmlns="http://www.w3.org/2000/svg">
<path d="M921.4 411.3C937.4 318.6 877.4 233.3 825.1 145.3C784.9 77.6 807.2 30.5 807.2 30.5C807.2 30.5 748.3 65.6 674.5 89.2C576.9 120.5 496.6 117.3 496.6 117.3C496.6 117.3 416.3 120.5 318.7 89.2C244.9 65.6 186 30.5 186 30.5C186 30.5 208.4 77.6 168.1 145.3C115.8 233.3 55.8 318.6 71.8 411.3C94.1 540.8 180.9 579.1 180.9 579.1C180.9 579.1 180.9 579.4 180.8 579.9C155.1 584.3 105.7 601.9 87.1 672.2C61.6 769.2 157.3 809.3 157.3 809.3L196.4 735.6C199.1 742.5 202.3 749.2 205.8 755.7C283 897.4 415 936.3 496.6 936.3C578.2 936.3 710.3 897.4 787.4 755.8C790.9 749.4 793.9 742.8 796.6 736.1L835.4 809.4C835.4 809.4 931.1 769.2 905.6 672.3C887.2 602.3 838.2 584.5 812.4 580C812.3 579.5 812.3 579.1 812.3 579.1C812.3 579.1 899.1 540.8 921.4 411.3Z" fill="#37474F"/>
<path d="M496.4 905.7C525.1 905.7 618.8 902.3 685.7 825.1C764 734.9 748.9 600.4 748.9 600.4C748.9 600.4 685.7 622.7 599.6 590.1C513.5 557.5 496.4 497.5 496.4 497.5C496.4 497.5 479.3 557.5 393.2 590.1C307.1 622.7 243.9 600.4 243.9 600.4C243.9 600.4 228.8 734.9 307.1 825.1C374 902.2 467.7 905.7 496.4 905.7Z" fill="#00C853" fill-opacity="0.55"/>
<path d="M465.1 905C461.6 905 458.3 907.5 455.5 911.8C452.8 907.5 449.5 905 445.9 905C442.4 905 439.1 907.5 436.3 911.8C433.6 907.5 430.3 905 426.7 905C423.2 905 419.9 907.5 417.1 911.8C414.4 907.5 411.1 905 407.5 905C398.1 905 390.6 922.6 390.6 944.2C390.6 965.8 398.2 983.4 407.5 983.4C411 983.4 414.3 980.9 417.1 976.6C419.8 980.9 423.1 983.4 426.7 983.4C430.2 983.4 433.5 980.9 436.3 976.6C439 980.9 442.3 983.4 445.9 983.4C449.4 983.4 452.7 980.9 455.5 976.6C458.2 980.9 461.5 983.4 465.1 983.4C474.5 983.4 482 965.8 482 944.2C482 922.6 474.5 905 465.1 905ZM585 905C581.5 905 578.2 907.5 575.4 911.8C572.7 907.5 569.4 905 565.8 905C562.3 905 559 907.5 556.2 911.8C553.5 907.5 550.2 905 546.6 905C543 905 539.8 907.5 537 911.8C534.3 907.5 531 905 527.4 905C518 905 510.5 922.6 510.5 944.2C510.5 965.8 518.1 983.4 527.4 983.4C530.9 983.4 534.2 980.9 537 976.6C539.7 980.9 543 983.4 546.6 983.4C550.2 983.4 553.4 980.9 556.2 976.6C558.9 980.9 562.2 983.4 565.8 983.4C569.3 983.4 572.6 980.9 575.4 976.6C578.1 980.9 581.4 983.4 585 983.4C594.4 983.4 601.9 965.8 601.9 944.2C602 922.6 594.4 905 585 905Z" fill="#FFD600"/>
<path d="M308.9 556C408.09 556 488.5 475.59 488.5 376.4C488.5 277.21 408.09 196.8 308.9 196.8C209.71 196.8 129.3 277.21 129.3 376.4C129.3 475.59 209.71 556 308.9 556Z" fill="#FFD600"/>
<path d="M357.3 444.7C397.838 444.7 430.7 411.838 430.7 371.3C430.7 330.762 397.838 297.9 357.3 297.9C316.762 297.9 283.9 330.762 283.9 371.3C283.9 411.838 316.762 444.7 357.3 444.7Z" fill="black"/>
<path d="M377.1 404C396.651 404 412.5 388.151 412.5 368.6C412.5 349.049 396.651 333.2 377.1 333.2C357.549 333.2 341.7 349.049 341.7 368.6C341.7 388.151 357.549 404 377.1 404Z" fill="white"/>
<path d="M683.9 556C783.09 556 863.5 475.59 863.5 376.4C863.5 277.21 783.09 196.8 683.9 196.8C584.71 196.8 504.3 277.21 504.3 376.4C504.3 475.59 584.71 556 683.9 556Z" fill="#FFD600"/>
<path d="M635.5 444.7C676.038 444.7 708.9 411.838 708.9 371.3C708.9 330.762 676.038 297.9 635.5 297.9C594.962 297.9 562.1 330.762 562.1 371.3C562.1 411.838 594.962 444.7 635.5 444.7Z" fill="black"/>
<path d="M615.7 404C635.251 404 651.1 388.151 651.1 368.6C651.1 349.049 635.251 333.2 615.7 333.2C596.149 333.2 580.3 349.049 580.3 368.6C580.3 388.151 596.149 404 615.7 404Z" fill="white"/>
<path d="M496.4 507C496.4 507 534.5 480.2 533.9 460.4C533.3 440.6 506.5 440 496.4 440C486.3 440 459.6 440.6 458.9 460.4C458.3 480.2 496.4 507 496.4 507Z" fill="#EEB22D"/>
<g filter="url(#filter0_i_1_31)">
<path d="M2134.2 667.2L2141.4 662C2150.47 656.667 2156.87 654 2160.6 654C2168.87 654 2177.8 661.467 2187.4 676.4C2193.27 685.733 2196.2 693.2 2196.2 698.8C2196.2 704.4 2194.33 709.067 2190.6 712.8C2187.13 716.533 2183 719.867 2178.2 722.8C2173.4 725.733 2168.73 728.533 2164.2 731.2C2159.93 733.867 2151 737.333 2137.4 741.6C2123.8 745.867 2110.6 748 2097.8 748C2085.27 748 2072.47 746.4 2059.4 743.2C2046.6 739.733 2033.27 734.133 2019.4 726.4C2005.8 718.4 1993.53 708.8 1982.6 697.6C1971.67 686.133 1962.6 671.6 1955.4 654C1948.47 636.133 1945 616.8 1945 596C1945 575.2 1948.47 556.4 1955.4 539.6C1962.33 522.533 1971.13 508.533 1981.8 497.6C1992.73 486.4 2005.13 477.067 2019 469.6C2045.13 455.2 2071.4 448 2097.8 448C2110.33 448 2123 450 2135.8 454C2148.87 457.733 2158.73 461.6 2165.4 465.6L2175 471.2C2179.8 474.133 2183.53 476.533 2186.2 478.4C2193.13 484 2196.6 490.4 2196.6 497.6C2196.6 504.533 2193.8 511.867 2188.2 519.6C2177.8 534 2168.47 541.2 2160.2 541.2C2155.4 541.2 2148.6 538.267 2139.8 532.4C2128.6 523.333 2113.67 518.8 2095 518.8C2077.67 518.8 2060.6 524.8 2043.8 536.8C2035.8 542.667 2029.13 550.933 2023.8 561.6C2018.47 572.267 2015.8 584.4 2015.8 598C2015.8 611.333 2018.47 623.333 2023.8 634C2029.13 644.667 2035.93 653.067 2044.2 659.2C2060.47 670.933 2077.4 676.8 2095 676.8C2103.27 676.8 2111 675.733 2118.2 673.6C2125.67 671.467 2131 669.333 2134.2 667.2ZM2365.68 535.6C2370.75 537.2 2374.88 540 2378.08 544C2381.55 547.733 2383.28 553.867 2383.28 562.4C2383.28 570.933 2380.75 580.267 2375.68 590.4C2370.62 600.533 2363.28 605.6 2353.68 605.6C2348.88 605.6 2344.22 604.533 2339.68 602.4C2335.42 600.267 2329.68 599.2 2322.48 599.2C2315.28 599.2 2308.48 601.733 2302.08 606.8C2295.95 611.867 2292.88 618 2292.88 625.2V709.2C2292.88 715.333 2292.62 720 2292.08 723.2C2291.82 726.133 2290.62 729.6 2288.48 733.6C2284.48 740.533 2274.08 744 2257.28 744C2244.48 744 2235.28 741.733 2229.68 737.2C2225.42 733.467 2223.02 727.733 2222.48 720C2222.48 717.333 2222.48 713.467 2222.48 708.4V568C2222.48 561.867 2222.62 557.333 2222.88 554.4C2223.42 551.2 2224.62 547.733 2226.48 544C2230.22 536.8 2240.62 533.2 2257.68 533.2C2273.68 533.2 2283.68 536.267 2287.68 542.4C2290.62 546.667 2292.08 551.067 2292.08 555.6C2293.42 553.733 2295.28 551.467 2297.68 548.8C2300.35 546.133 2305.82 542.533 2314.08 538C2322.35 533.467 2329.55 531.2 2335.68 531.2C2342.08 531.2 2347.42 531.6 2351.68 532.4C2355.95 532.933 2360.62 534 2365.68 535.6ZM2529.99 555.6C2531.59 540.667 2542.12 533.2 2561.59 533.2C2571.99 533.2 2579.72 534 2584.79 535.6C2589.85 537.2 2593.32 540 2595.19 544C2597.32 548 2598.52 551.6 2598.79 554.8C2599.32 557.733 2599.59 562.267 2599.59 568.4V708.4C2599.59 714.533 2599.32 719.2 2598.79 722.4C2598.52 725.333 2597.45 728.8 2595.59 732.8C2591.85 739.733 2582.65 743.2 2567.99 743.2C2553.59 743.2 2543.85 741.467 2538.79 738C2533.99 734.267 2531.19 728.933 2530.39 722C2520.52 736.133 2503.99 743.2 2480.79 743.2C2457.85 743.2 2436.52 732.667 2416.79 711.6C2397.05 690.533 2387.19 666.133 2387.19 638.4C2387.19 610.4 2397.05 586 2416.79 565.2C2436.79 544.133 2458.65 533.6 2482.39 533.6C2491.45 533.6 2499.72 535.2 2507.19 538.4C2514.65 541.6 2519.85 544.667 2522.79 547.6C2525.72 550.267 2528.12 552.933 2529.99 555.6ZM2457.19 638.8C2457.19 647.6 2460.65 655.6 2467.59 662.8C2474.52 669.733 2482.92 673.2 2492.79 673.2C2502.65 673.2 2510.79 669.6 2517.19 662.4C2523.85 655.2 2527.19 647.333 2527.19 638.8C2527.19 630 2523.99 621.867 2517.59 614.4C2511.45 606.933 2503.05 603.2 2492.39 603.2C2481.99 603.2 2473.45 606.933 2466.79 614.4C2460.39 621.867 2457.19 630 2457.19 638.8ZM2899.87 604L2873.87 602.4V657.6C2873.87 664.8 2874.94 670 2877.07 673.2C2879.47 676.4 2883.74 678 2889.87 678C2896.27 678 2901.07 678.267 2904.27 678.8C2907.74 679.067 2911.2 680.267 2914.67 682.4C2921.07 685.867 2924.27 694.8 2924.27 709.2C2924.27 726 2920.54 736.267 2913.07 740C2909.07 741.867 2905.47 743.067 2902.27 743.6C2899.34 743.867 2894.94 744 2889.07 744C2862.94 744 2842.27 736.667 2827.07 722C2811.87 707.333 2804.27 687.2 2804.27 661.6V602.4C2789.87 603.2 2777.6 603.6 2767.47 603.6L2728.67 602V709.2C2728.67 719.333 2727.34 726.933 2724.67 732C2722.27 736.8 2718.4 740 2713.07 741.6C2708 743.2 2701.34 744 2693.07 744C2684.8 744 2678.14 743.2 2673.07 741.6C2668.27 739.733 2664.8 736.933 2662.67 733.2C2660.54 729.2 2659.2 725.6 2658.67 722.4C2658.4 719.2 2658.27 714.533 2658.27 708.4V602.4C2652.94 603.2 2647.34 603.6 2641.47 603.6C2635.87 603.6 2631.07 601.333 2627.07 596.8C2623.34 592.267 2621.47 584.533 2621.47 573.6C2621.47 562.667 2622.14 554.8 2623.47 550C2624.8 544.933 2626.67 541.333 2629.07 539.2C2633.34 535.733 2638.67 534 2645.07 534L2658.27 535.6V514.4C2658.27 493.867 2665.6 475.333 2680.27 458.8C2694.94 442 2716.14 433.6 2743.87 433.6C2750 433.6 2754.54 433.867 2757.47 434.4C2760.67 434.667 2764.27 435.733 2768.27 437.6C2775.47 441.333 2779.07 451.733 2779.07 468.8C2779.07 481.6 2776.8 490.667 2772.27 496C2768.54 500.533 2762.67 502.933 2754.67 503.2C2752.27 503.467 2748.54 503.6 2743.47 503.6C2733.6 503.6 2728.67 506.933 2728.67 513.6V535.6C2743.34 534.533 2756.14 534 2767.07 534L2804.27 535.6V494.4C2804.27 488.267 2804.4 483.733 2804.67 480.8C2805.2 477.867 2806.4 474.667 2808.27 471.2C2812 464.533 2822.4 461.2 2839.47 461.2C2857.6 461.2 2868.27 466.133 2871.47 476C2873.07 480.267 2873.87 487.067 2873.87 496.4V535.6C2885.6 534.533 2894.4 534 2900.27 534C2906.4 534 2910.94 534.267 2913.87 534.8C2917.07 535.067 2920.54 536.267 2924.27 538.4C2931.47 541.867 2935.07 552.133 2935.07 569.2C2935.07 586 2931.47 596.267 2924.27 600C2920.27 601.867 2916.67 603.067 2913.47 603.6C2910.54 603.867 2906 604 2899.87 604Z" fill="#00C853"/>
</g>
<g filter="url(#filter1_i_1_31)">
<path d="M1236.8 525.2H1360C1366.13 525.2 1370.67 525.467 1373.6 526C1376.8 526.267 1380.4 527.467 1384.4 529.6C1391.6 533.333 1395.2 543.733 1395.2 560.8C1395.2 579.467 1390.27 590.4 1380.4 593.6C1375.87 595.2 1368.93 596 1359.6 596H1201.2C1182.53 596 1171.6 590.933 1168.4 580.8C1166.8 576.533 1166 569.733 1166 560.4V338C1166 324.4 1168.53 315.2 1173.6 310.4C1178.67 305.333 1188.27 302.8 1202.4 302.8H1360C1366.13 302.8 1370.67 303.067 1373.6 303.6C1376.8 303.867 1380.4 305.067 1384.4 307.2C1391.6 310.933 1395.2 321.333 1395.2 338.4C1395.2 357.067 1390.27 368 1380.4 371.2C1375.87 372.8 1368.93 373.6 1359.6 373.6H1236.8V414H1316C1322.13 414 1326.67 414.267 1329.6 414.8C1332.8 415.067 1336.4 416.267 1340.4 418.4C1347.6 422.133 1351.2 432.533 1351.2 449.6C1351.2 468.267 1346.13 479.2 1336 482.4C1331.47 484 1324.53 484.8 1315.2 484.8H1236.8V525.2ZM1586.28 297.6C1588.41 293.6 1592.01 290.8 1597.08 289.2C1602.14 287.6 1608.81 286.8 1617.08 286.8C1625.61 286.8 1632.41 287.6 1637.48 289.2C1642.54 290.8 1646.01 293.6 1647.88 297.6C1650.01 301.6 1651.21 305.2 1651.48 308.4C1652.01 311.333 1652.28 315.867 1652.28 322V560.8C1652.28 566.933 1652.01 571.6 1651.48 574.8C1651.21 577.733 1650.01 581.067 1647.88 584.8C1643.88 592 1632.54 595.6 1613.88 595.6C1595.48 595.6 1585.21 589.067 1583.08 576C1571.88 588.8 1556.28 595.2 1536.28 595.2C1512.28 595.2 1490.41 584.8 1470.68 564C1450.94 542.933 1441.08 518.533 1441.08 490.8C1441.08 462.8 1450.94 438.267 1470.68 417.2C1490.68 396.133 1512.54 385.6 1536.28 385.6C1556.01 385.6 1571.34 392.267 1582.28 405.6V321.6C1582.28 315.467 1582.41 310.933 1582.68 308C1583.21 304.8 1584.41 301.333 1586.28 297.6ZM1521.48 514.8C1528.41 522 1536.81 525.6 1546.68 525.6C1556.54 525.6 1564.68 522 1571.08 514.8C1577.74 507.6 1581.08 499.733 1581.08 491.2C1581.08 482.4 1577.88 474.267 1571.48 466.8C1565.34 459.333 1556.94 455.6 1546.28 455.6C1535.61 455.6 1527.08 459.333 1520.68 466.8C1514.28 474 1511.08 482 1511.08 490.8C1511.08 499.6 1514.54 507.6 1521.48 514.8ZM1801.74 595.2C1774.81 595.2 1752.41 585.067 1734.54 564.8C1716.94 544.267 1708.14 519.333 1708.14 490V420C1708.14 413.6 1708.27 408.933 1708.54 406C1709.07 403.067 1710.27 399.6 1712.14 395.6C1715.87 388.4 1726.27 384.8 1743.34 384.8C1762.01 384.8 1772.94 389.867 1776.14 400C1777.74 404.267 1778.54 411.067 1778.54 420.4V490.4C1778.54 501.333 1781.61 509.867 1787.74 516C1794.14 522.133 1802.54 525.2 1812.94 525.2C1823.61 525.2 1832.14 522 1838.54 515.6C1845.21 509.2 1848.54 500.8 1848.54 490.4V419.6C1848.54 413.467 1848.67 408.933 1848.94 406C1849.47 402.8 1850.81 399.2 1852.94 395.2C1856.41 388.267 1866.67 384.8 1883.74 384.8C1900.54 384.8 1910.81 388.4 1914.54 395.6C1916.41 399.6 1917.47 403.2 1917.74 406.4C1918.27 409.333 1918.54 413.867 1918.54 420V561.6C1918.54 567.467 1918.27 572 1917.74 575.2C1917.47 578.133 1916.27 581.467 1914.14 585.2C1910.14 592.133 1899.87 595.6 1883.34 595.6C1867.07 595.6 1857.07 592.4 1853.34 586C1850.67 581.467 1849.34 576 1849.34 569.6C1848.27 571.467 1845.87 574.133 1842.14 577.6C1838.41 581.067 1834.81 584 1831.34 586.4C1822.27 592.267 1812.41 595.2 1801.74 595.2Z" fill="#37474F"/>
</g>
<defs>
<filter id="filter0_i_1_31" x="1945" y="433.6" width="990.069" height="318.4" filterUnits="userSpaceOnUse" color-interpolation-filters="sRGB">
<feFlood flood-opacity="0" result="BackgroundImageFix"/>
<feBlend mode="normal" in="SourceGraphic" in2="BackgroundImageFix" result="shape"/>
<feColorMatrix in="SourceAlpha" type="matrix" values="0 0 0 0 0 0 0 0 0 0 0 0 0 0 0 0 0 0 127 0" result="hardAlpha"/>
<feOffset dy="4"/>
<feGaussianBlur stdDeviation="2"/>
<feComposite in2="hardAlpha" operator="arithmetic" k2="-1" k3="1"/>
<feColorMatrix type="matrix" values="0 0 0 0 0.215686 0 0 0 0 0.278431 0 0 0 0 0.309804 0 0 0 1 0"/>
<feBlend mode="normal" in2="shape" result="effect1_innerShadow_1_31"/>
</filter>
<filter id="filter1_i_1_31" x="1166" y="286.8" width="752.541" height="313.2" filterUnits="userSpaceOnUse" color-interpolation-filters="sRGB">
<feFlood flood-opacity="0" result="BackgroundImageFix"/>
<feBlend mode="normal" in="SourceGraphic" in2="BackgroundImageFix" result="shape"/>
<feColorMatrix in="SourceAlpha" type="matrix" values="0 0 0 0 0 0 0 0 0 0 0 0 0 0 0 0 0 0 127 0" result="hardAlpha"/>
<feOffset dy="4"/>
<feGaussianBlur stdDeviation="2"/>
<feComposite in2="hardAlpha" operator="arithmetic" k2="-1" k3="1"/>
<feColorMatrix type="matrix" values="0 0 0 0 0.0980392 0 0 0 0 0.556863 0 0 0 0 0.321569 0 0 0 1 0"/>
<feBlend mode="normal" in2="shape" result="effect1_innerShadow_1_31"/>
</filter>
</defs>
</svg>
